<svg xmlns="http://www.w3.org/2000/svg" width="255" height="129.8" viewBox="0 0 255 129.8">
  <g id="グループ_286" data-name="グループ 286" transform="translate(0 0)">
    <rect id="長方形_516" data-name="長方形 516" width="255" height="117" rx="10" transform="translate(0 12.8)" fill="#fff"/>
    <path id="長方形_516_-_アウトライン" data-name="長方形 516 - アウトライン" d="M10,4a6.007,6.007,0,0,0-6,6v97a6.007,6.007,0,0,0,6,6H245a6.007,6.007,0,0,0,6-6V10a6.007,6.007,0,0,0-6-6H10m0-4H245a10,10,0,0,1,10,10v97a10,10,0,0,1-10,10H10A10,10,0,0,1,0,107V10A10,10,0,0,1,10,0Z" transform="translate(0 12.8)" fill="rgba(84,195,241,0.5)"/>
    <path id="パス_9214" data-name="パス 9214" d="M343.44,26.593H234.719a13.3,13.3,0,0,1,0-26.592H343.44a13.3,13.3,0,0,1,0,26.592" transform="translate(-161.82 -0.001)" fill="#2f2725"/>
    <path id="パス_9215" data-name="パス 9215" d="M260.382,24c-.836-.047-2.192-.063-3.154-.063h-7.884c-.867,0-2.286.031-3.138.063V22.3c.82.032,2.239.063,3.138.063h7.884c.993,0,2.35-.031,3.154-.063Z" transform="translate(-173.444 -10.459)" fill="#fff"/>
    <path id="パス_9216" data-name="パス 9216" d="M276.6,13.784c0-.49-.016-1.12-.048-1.4.363.016.679.031,1.136.031h.678c.11-.536.174-1.072.236-1.608l1.5.252c.11.016.2.1.2.174s-.063.126-.3.19c-.126.363-.237.694-.347.993h.741c.458,0,.788-.015,1.136-.031-.032.3-.048.867-.048,1.4V16.29c.284-.079.584-.141.868-.2l.173,1.261-1.041.284v1.955c0,.8.016,1.83.063,4.005v.142c0,.662-.142.962-.52,1.167a4.877,4.877,0,0,1-2.349.315,5.174,5.174,0,0,0-.315-1.53,10.868,10.868,0,0,0,1.183.063c.583,0,.646-.063.646-.662V17.946l-.615.142V20.5c0,1.025.016,1.829.047,2.3h-1.2c.031-.552.047-1.293.047-2.3V18.34c-.189.032-.379.079-.568.111v.125c0,3.3-.426,5.172-1.561,6.891a4.269,4.269,0,0,0-.931-1.23c.883-1.466,1.183-2.822,1.183-5.519l-.347.063c-.142.268-.2.331-.347.331-.095,0-.142-.047-.189-.174l-.552-1.5,1.435-.19Zm1.309,3.248c.773-.142,1.53-.3,2.286-.457V13.61h-2.286Zm1.072-3.216a7.235,7.235,0,0,1,.946,2.475l-1.119.363a10.832,10.832,0,0,0-.741-2.476Zm10.455,4.447a.276.276,0,0,1,.11.221c0,.141-.047.189-.458.284a10.361,10.361,0,0,1-.977,2.365,13.081,13.081,0,0,1-.9,1.419,14.629,14.629,0,0,0,2.964,1.546,9.067,9.067,0,0,0-.867,1.277,13.394,13.394,0,0,1-3.059-1.8,7.692,7.692,0,0,1-1.545,1.009,13.768,13.768,0,0,1-2.3.9,8.183,8.183,0,0,0-.678-1.293,9.524,9.524,0,0,0,3.485-1.655,9.59,9.59,0,0,1-1.719-3.564c-.363.016-.741.016-1.041.032V17.568c.457.016,1.12.032,1.577.032h4.131l.268-.284Zm-4.274-5.33v.488a4.73,4.73,0,0,1-.394,2.555,3.255,3.255,0,0,1-1.4,1.308,2.951,2.951,0,0,0-.883-1.214c1.057-.694,1.183-1.025,1.183-3.012,0-.426,0-.536-.031-1.482.315.032.8.047,1.214.047h1.971c.584-.015.946-.031,1.088-.031-.016.315-.031,1.009-.031,1.341v1.924c0,.457.063.5.457.5.315,0,.41-.048.457-.205a6.818,6.818,0,0,0,.063-1.356,5.562,5.562,0,0,0,1.356.331c-.032,1.64-.094,2.081-.395,2.349-.252.236-.536.3-1.482.3-1.766,0-1.94-.11-1.94-1.293V12.932Zm-.347,6.039a8.073,8.073,0,0,0,1.025,2.1c.11.174.221.315.331.473a8.787,8.787,0,0,0,1.309-2.57Z" transform="translate(-187.026 -5.068)" fill="#fff"/>
    <path id="パス_9217" data-name="パス 9217" d="M313.921,16.126c.142.063.174.095.174.174s0,.079-.174.174a32.67,32.67,0,0,1-1.75,5.661c-.946,2.065-1.908,3-3.138,3-1.624,0-2.744-1.592-2.744-3.894a6.585,6.585,0,0,1,1.987-4.683,7.179,7.179,0,0,1,5.156-2.065,7.625,7.625,0,0,1,4.4,1.293,5.124,5.124,0,0,1,2.1,4.383,5.017,5.017,0,0,1-2.145,4.368,10.122,10.122,0,0,1-3.311,1.561,5.344,5.344,0,0,0-.772-1.561,9.5,9.5,0,0,0,2.791-1.136,3.771,3.771,0,0,0,1.735-3.312,3.879,3.879,0,0,0-2.9-3.894,5.552,5.552,0,0,0-1.94-.3Zm-6.055,5.125c0,1.277.5,2.271,1.135,2.271.52,0,1.12-.8,1.845-2.429a27.076,27.076,0,0,0,1.262-3.894,5.612,5.612,0,0,0,.189-1.23,5.608,5.608,0,0,0-4.431,5.282" transform="translate(-201.626 -6.796)" fill="#fff"/>
    <path id="パス_9218" data-name="パス 9218" d="M345.814,14.322c.126.047.19.095.19.174,0,.11-.063.142-.395.221a14.524,14.524,0,0,1-.678,1.592h1.482c.993,0,2.334-.015,3.138-.063v1.576c-.836-.031-2.176-.063-3.138-.063h-8.326c-.867,0-2.287.031-3.138.063V16.246c.82.031,2.239.063,3.138.063h1.372a12.431,12.431,0,0,0-.977-1.8l1.009-.536h-1.025c-.8,0-1.845.032-2.507.063V12.477c.662.031,1.7.047,2.507.047H341.4v-.489c0-.441,0-.788-.016-1.025l1.624.11c.2.015.3.079.3.173s-.079.174-.315.3v.93h3.028c.725,0,1.845-.016,2.523-.047v1.561c-.678-.031-1.8-.063-2.523-.063h-1.183Zm-6.528,11.243h-1.592c.031-.63.047-1.545.047-2.775V21.166c0-.946-.016-2-.047-2.507.41.015.789.031,1.34.031h6.481c.536,0,.915-.016,1.34-.031-.031.5-.031.5-.047,2.507v1.466c0,1.261.015,2.176.047,2.775h-1.592v-.441h-5.976Zm5.976-5.44h-5.976V21.1h5.976Zm0,2.413h-5.976v.978h5.976Zm-1.955-6.229a17.075,17.075,0,0,0,.852-2.334H339.98a12.35,12.35,0,0,1,1.088,2l-.678.331Z" transform="translate(-215.07 -5.166)" fill="#fff"/>
    <path id="パス_9219" data-name="パス 9219" d="M372.48,23.207c0,1.025.016,1.829.031,2.3h-1.577c.032-.552.048-1.277.048-2.3V21.946a16.721,16.721,0,0,1-6.15,3.169,8.312,8.312,0,0,0-.6-1.356,16.855,16.855,0,0,0,5.677-2.46h-2.286c-.868,0-2.287.032-3.138.063V19.944c.82.047,2.239.063,3.138.063h3.359c-.016-.679-.032-1.1-.048-1.42l1.593.126c.174,0,.268.063.268.142,0,.095-.079.19-.3.315-.016.331-.016.457-.016.836h3.359c.993,0,2.333-.016,3.138-.063v1.419c-.836-.031-2.176-.063-3.138-.063h-2.365a14.306,14.306,0,0,0,5.74,2.3,3.944,3.944,0,0,0-.725,1.356,13.883,13.883,0,0,1-4.021-1.561,9.143,9.143,0,0,1-1.987-1.419Zm-3.832-6.04a17.418,17.418,0,0,1-1.735,1.009c-1.167.6-1.167.6-1.451.773-.11.19-.189.269-.268.269s-.174-.079-.236-.205l-.6-1.309a17.458,17.458,0,0,0,3.863-1.8Zm-2.854-5.282a16.082,16.082,0,0,1,2.538,1.924l-1.009,1.183a20.654,20.654,0,0,0-2.4-2.035ZM370.43,18.9h-1.482c.032-.363.048-.9.048-1.671V14.046c0-.5-.032-1.1-.048-1.387.347.015.679.015,1.136.015h.757a11.23,11.23,0,0,0,.488-1.782l1.419.331a.266.266,0,0,1,.2.22c0,.079,0,.079-.3.205-.236.52-.347.788-.458,1.025h1.23c.457,0,.788,0,1.135-.015-.031.284-.047.883-.047,1.387v3.027c0,.741.016,1.262.047,1.64H373.08V18.3H370.43Zm2.649-5H370.43V14.9h2.649Zm0,2.177H370.43V17.09h2.649Zm2.239-.347a13.654,13.654,0,0,1,3.658,1.986l-.788,1.2c-.221-.142-.394-.253-.5-.331a17.234,17.234,0,0,0-3.012-1.687Zm-.52-1.609a14.043,14.043,0,0,0,2.728-2.239L378.614,13a.311.311,0,0,1,.095.221.129.129,0,0,1-.142.126,1.931,1.931,0,0,1-.236-.016,23.1,23.1,0,0,1-2.823,1.94Z" transform="translate(-228.805 -5.11)" fill="#fff"/>
    <path id="パス_9220" data-name="パス 9220" d="M400.7,16.853l.852,1.009c.095.11.11.142.11.2,0,.11-.079.158-.363.221a15.792,15.792,0,0,1-1.12,1.182c-.331.315-.678.584-1.025.868v.252c1.072-.237,2.144-.5,3.2-.82l.094,1.371a27.623,27.623,0,0,1-3.312.836v.174c0,.284.016,1.135.047,1.687v.2c0,1.167-.52,1.419-2.9,1.419h-.11a5.828,5.828,0,0,0-.3-1.624,9.465,9.465,0,0,0,1.009.063c.757,0,.8-.047.8-.662v-.962c-1.246.268-2.081.441-2.492.52-.126.221-.221.315-.315.315s-.19-.11-.221-.2l-.458-1.546c1.167-.126,2.318-.284,3.469-.488-.015-.394-.015-.773-.063-1.167a1.9,1.9,0,0,0-.047-.3l.788.063a10.215,10.215,0,0,0,1.23-1.1h-1.546a20.71,20.71,0,0,1-3.012,2.381,3.317,3.317,0,0,0-.852-1.2c.647-.41,1.2-.788,1.7-1.182a9.292,9.292,0,0,0-.93.015V17.057l.946.016h1.466c.268-.252.52-.536.773-.8h-2.3c-.457,0-1.119,0-1.561.032V14.9c.442.031,1.1.031,1.561.031h1.482V13.778h-1.4c-.3,0-.71.015-.931.031V12.438c.221.015.631.015.931.015h1.4v-.047c0-.725,0-.915-.031-1.466l1.545.11c.174,0,.284.063.284.158s-.1.189-.315.315v.93h.8c.3,0,.694,0,.93-.015v.677c.395-.677.726-1.4,1.057-2.113l1.34.552c.158.063.236.142.236.221,0,.11-.047.142-.394.237a20.087,20.087,0,0,1-1.7,2.917h.047c.458,0,1.12,0,1.562-.031v1.4c-.442-.032-1.1-.032-1.562-.032h-1.1c-.19.237-.41.474-.631.725l-.079.079h1.183Zm-1.4-1.924a11.493,11.493,0,0,0,.82-1.136c-.173-.015-.347-.015-.52-.015h-.8v1.151Zm8.531.8a16.866,16.866,0,0,1-.8,4.084,7.748,7.748,0,0,1-.868,1.814,10.344,10.344,0,0,0,2.933,2.538A4.339,4.339,0,0,0,408,25.431a15.106,15.106,0,0,1-2.775-2.618,8.986,8.986,0,0,1-2.145,1.609,15.414,15.414,0,0,1-2.681,1.136,4.331,4.331,0,0,0-.71-1.4,9.5,9.5,0,0,0,4.526-2.491c.063-.063.11-.126.158-.174a13.884,13.884,0,0,1-.962-2.933c-.015-.062-.015-.094-.031-.157q-.378.734-.852,1.466a4.22,4.22,0,0,0-1.072-1.025,12.992,12.992,0,0,0,1.719-3.8,24.335,24.335,0,0,0,.71-4.147l1.435.331c.19.047.268.11.268.189,0,.095-.016.11-.331.284-.142.962-.284,1.813-.457,2.586h3.122c.315,0,.709,0,.946-.016v1.482l-.946-.015Zm-3.39,0c-.031.126-.079.237-.11.363a16.727,16.727,0,0,0,.993,4,13.009,13.009,0,0,0,1.041-4.368Z" transform="translate(-242.847 -5.11)" fill="#fff"/>
    <path id="パス_9221" data-name="パス 9221" d="M430.578,22.642h-2.57c-.662,0-1.545.016-2.192.031V21.145c.6.031,1.5.047,2.192.047h2.57c0-.584,0-.788-.016-1.293l1.562.11c.173.016.283.063.283.158s-.094.189-.3.315c-.016.284-.016.394-.016.709h2.554c.631,0,1.656-.016,2.192-.047v1.529c-.583-.015-1.592-.031-2.192-.031h-2.554V23.7h3.39c.993,0,2.334-.031,3.138-.063v1.577c-.835-.031-2.176-.063-3.138-.063h-8.294c-.868,0-2.287.032-3.138.063V23.636c.82.032,2.239.063,3.138.063h3.39Zm-.031-10.8-.016-1.009,1.577.11c.189.015.3.063.3.158s-.094.189-.315.315v.852h2.823c1.088,0,2.318-.016,3.138-.063-.031.568-.031.868-.031,1.2v.426c0,.173.016.71.047,1.041h-1.64c.016-.268.047-.9.047-1.041v-.142h-10.3v.142c0,.142.032.773.047,1.041h-1.639c.031-.331.047-.868.047-1.041V13.4c0-.331,0-.631-.032-1.2.82.047,2.05.063,3.138.063h2.807Zm.126,4.857c-.015.031-.031.047-.047.079-.568.962-.773,1.261-1.057,1.671,1.372-.047,2.728-.142,4.084-.253-.315-.158-.662-.315-1.056-.488l.773-.993a13.135,13.135,0,0,1,4.194,2.318l-.993,1.246c-.473-.409-.868-.725-1.214-1.009-2.019.252-3.391.41-5.125.52-2.791.2-2.791.2-3.911.3l-.142.142c-.094.094-.158.141-.2.141-.079,0-.174-.11-.2-.252l-.457-1.561c1.056-.016,1.971-.047,2.791-.063a19.605,19.605,0,0,0,.946-1.8h-.961c-.773,0-2.145.031-2.823.047V15.231c.647.032,2.019.063,2.823.063h6.559c.868,0,2.113-.031,2.822-.063v1.514c-.741-.016-1.987-.047-2.822-.047Z" transform="translate(-256.862 -5.082)" fill="#fff"/>
    <g id="グループ_1109" data-name="グループ 1109" transform="translate(56.226 49.861)">
      <path id="パス_9222" data-name="パス 9222" d="M217.065,182.159c0,.923.014,1.648.028,2.073h-1.42c.029-.5.043-1.15.043-2.073v-1.136a15.059,15.059,0,0,1-5.539,2.855,7.486,7.486,0,0,0-.54-1.221,15.187,15.187,0,0,0,5.113-2.216h-2.06c-.781,0-2.059.029-2.826.057V179.22c.739.042,2.017.056,2.826.056h3.025c-.014-.611-.029-.994-.043-1.278l1.435.114c.156,0,.242.056.242.128s-.071.17-.27.284c-.014.3-.014.411-.014.752h3.025c.895,0,2.1-.014,2.826-.056V180.5c-.753-.029-1.96-.057-2.826-.057h-2.13a12.882,12.882,0,0,0,5.17,2.074,3.537,3.537,0,0,0-.654,1.221,12.531,12.531,0,0,1-3.622-1.405,8.225,8.225,0,0,1-1.789-1.279Zm-3.451-5.439a15.825,15.825,0,0,1-1.563.909c-1.051.539-1.051.539-1.306.7-.1.17-.171.242-.242.242s-.157-.071-.213-.185l-.54-1.179a15.707,15.707,0,0,0,3.479-1.619Zm-2.571-4.758a14.472,14.472,0,0,1,2.287,1.734l-.909,1.065a18.658,18.658,0,0,0-2.159-1.832Zm4.175,6.32h-1.335c.028-.326.043-.809.043-1.505v-2.869c0-.454-.029-.994-.043-1.249.312.014.611.014,1.023.014h.682a10.144,10.144,0,0,0,.44-1.605l1.278.3a.24.24,0,0,1,.185.2c0,.071,0,.071-.27.185-.213.469-.313.71-.412.923h1.108c.411,0,.71,0,1.023-.014-.029.255-.043.795-.043,1.249v2.727c0,.667.014,1.136.043,1.477H217.6v-.369h-2.386Zm2.386-4.5h-2.386v.9H217.6Zm0,1.96h-2.386v.909H217.6Zm2.017-.312a12.278,12.278,0,0,1,3.295,1.789l-.71,1.079c-.2-.128-.355-.227-.455-.3a15.511,15.511,0,0,0-2.713-1.52Zm-.469-1.449a12.649,12.649,0,0,0,2.457-2.017l.98,1.009a.28.28,0,0,1,.085.2.116.116,0,0,1-.128.114,1.8,1.8,0,0,1-.213-.014,20.931,20.931,0,0,1-2.542,1.747Z" transform="translate(-209.637 -130.102)" fill="#5d5d5d"/>
      <path id="パス_9223" data-name="パス 9223" d="M241.394,174.777c-.3-.014-.753-.029-1.136-.029h-2.443c-.383,0-.838.014-1.136.029v-1.349c.313.014.824.029,1.136.029h2.443c.312,0,.823-.014,1.136-.029Zm-2.94,9.132h-1.349c.028-.327.043-.81.043-1.506v-1.846c0-.44-.014-.994-.043-1.25.327.014.625.028,1.036.028h1.818c.426,0,.71-.014,1.037-.028-.029.255-.043.81-.043,1.25v1.761c0,.667.014,1.15.043,1.477h-1.349v-.454h-1.193Zm1.477-11.106h-1.79l-.852.014V171.5c.213.014.582.029.852.029h1.79c.27,0,.639-.014.852-.029v1.32Zm.852,3.891c-.213-.014-.582-.014-.852-.014h-1.79c-.27,0-.639,0-.852.014v-1.321c.213.015.582.015.852.015h1.79c.27,0,.639,0,.852-.015Zm0,1.96c-.213-.014-.582-.014-.852-.014h-1.79c-.27,0-.639,0-.852.014v-1.32c.213.014.582.014.852.014h1.79c.27,0,.639,0,.852-.014Zm-1.136,1.8h-1.193v1.747h1.193Zm6.433-7.6a14.589,14.589,0,0,0,.88-2.059l1.264.554a.2.2,0,0,1,.128.17c0,.1-.114.156-.383.17l-.213.4c-.185.341-.3.582-.412.767h.483c.539,0,1.264-.014,1.69-.029v1.335c-.426-.014-1.221-.028-1.69-.028h-.7v2.8h1.051c.539,0,1.278-.014,1.7-.029v1.335c-.44-.028-1.235-.042-1.7-.042h-5.1c-.469,0-1.264.014-1.69.042v-1.335c.426.014,1.15.029,1.69.029h.88v-2.8h-.611c-.469,0-1.278.014-1.7.028v-1.335c.426.014,1.151.029,1.7.029h.511a12.079,12.079,0,0,0-.867-1.477l.952-.582a6.428,6.428,0,0,1,1.164,1.761l-.539.3Zm-3.238,1.378a8.665,8.665,0,0,1,.909,2.116l-1.079.483a9.872,9.872,0,0,0-.767-2.144Zm1.136,9.3v.568h-1.335c.028-.34.042-.809.042-1.505v-2.585c0-.454-.029-.994-.042-1.25.312.014.611.014,1.023.014H247.5c.411,0,.71,0,1.023-.014-.014.256-.043.8-.043,1.25v2.357c0,.667.014,1.151.043,1.477h-1.335v-.312Zm3.21-3.579h-3.21v.611h3.21Zm0,1.747h-3.21v.639h3.21Zm-1.292-7.57h-.7v2.8h.7Zm1.42,2.215a10.106,10.106,0,0,0,.966-2.073l1.193.568a.191.191,0,0,1,.127.17c0,.1-.114.157-.383.185l-.483.909c-.085.156-.227.37-.5.8Z" transform="translate(-222.321 -129.977)" fill="#5d5d5d"/>
      <path id="パス_9224" data-name="パス 9224" d="M271.321,171.232a.166.166,0,0,1,.142.156c0,.085-.057.142-.27.227a9.657,9.657,0,0,1-.639,1.278,16.687,16.687,0,0,0,3.2-.44l.341,1.278a33.935,33.935,0,0,1-4.232.469c-.3.511-.8,1.292-1.065,1.661a3.123,3.123,0,0,1,1.321-.27,1.8,1.8,0,0,1,1.9,1.6c.681-.269,1.875-.824,3.067-1.405l1.009,1.008a.307.307,0,0,1,.085.2c0,.085-.085.127-.2.127h-.185c-1.307.469-2.045.767-3.678,1.491v2.7h-1.392v-2.131a7.183,7.183,0,0,0-1.42.909,1.889,1.889,0,0,0-.781,1.378c0,.767.653,1.036,2.485,1.036a20.115,20.115,0,0,0,4.573-.454,9.754,9.754,0,0,0-.086,1.122,2.507,2.507,0,0,0,.029.426,27.315,27.315,0,0,1-4.318.327,7.106,7.106,0,0,1-2.954-.384,2.062,2.062,0,0,1-1.207-2.017,2.665,2.665,0,0,1,.781-1.889,8.946,8.946,0,0,1,2.826-1.875c-.128-.8-.369-1.065-1.037-1.065-.994,0-2.272.894-3.323,2.343l-1.236-1.051a16.4,16.4,0,0,0,3.281-3.75c-.582.029-.739.029-1.036.029a10.293,10.293,0,0,1-1.279-.071l.057-1.335a11.912,11.912,0,0,0,1.917.114,9.548,9.548,0,0,0,.994-.042,7.741,7.741,0,0,0,.9-2Z" transform="translate(-235.632 -130.039)" fill="#5d5d5d"/>
      <path id="パス_9225" data-name="パス 9225" d="M294.9,174.94c-.3-.014-.753-.029-1.136-.029H291.31c-.383,0-.838.014-1.136.029v-1.35c.313.014.824.029,1.136.029h2.457c.312,0,.824-.015,1.136-.029Zm-2.954,9.132H290.6c.028-.327.042-.81.042-1.506V180.72c0-.44-.014-.994-.042-1.249.327.014.625.028,1.036.028h1.847c.411,0,.71-.014,1.023-.028-.029.255-.043.81-.043,1.249v1.762c0,.667.014,1.15.043,1.477h-1.335V183.5h-1.222Zm1.491-11.106h-1.8l-.852.014v-1.32c.213.014.582.029.852.029h1.8c.27,0,.639-.014.852-.029v1.32Zm.852,3.891c-.213-.014-.582-.014-.852-.014h-1.8c-.27,0-.639,0-.852.014v-1.321c.213.014.582.014.852.014h1.8c.27,0,.639,0,.852-.014Zm0,1.96c-.213-.014-.582-.014-.852-.014h-1.8c-.27,0-.639,0-.852.014V177.5c.213.014.582.014.852.014h1.8c.27,0,.639,0,.852-.014Zm-1.121,1.8h-1.222v1.747h1.222Zm5.581-2.2c.2.014.327.085.327.17s-.071.142-.285.27c-.1,2.187-.284,2.926-.951,3.764a4.738,4.738,0,0,1-2.344,1.6,5.61,5.61,0,0,0-.753-1.264,3.726,3.726,0,0,0,2-1.321,3.92,3.92,0,0,0,.611-2.585,6.563,6.563,0,0,0-.043-.753Zm1.079-3.763h1.363c.412,0,1.008-.014,1.42-.029v1.349c-.412-.014-1.008-.028-1.42-.028h-3.976c-.412,0-1.009.014-1.42.028v-1.349c.411.014,1.008.029,1.42.029h1.25v-.838h-1.605c-.469,0-1.264.014-1.7.043v-1.377c.426.014,1.164.028,1.7.028h1.605v-.057c0-.639,0-.809-.029-1.306l1.406.085c.156.014.256.071.256.142s-.071.17-.27.284v.852h1.832c.554,0,1.279-.014,1.7-.028v1.377c-.426-.029-1.236-.043-1.7-.043h-1.832Zm.526,1.917c.937,0,2.059-.029,2.812-.057-.015.327-.015.6-.015,1.079v.7l.015.81h-1.378v-1.292h-5.141V179.1h-1.378c.014-.483.014-.483.014-.782V177.6c0-.582,0-.767-.014-1.079.937.042,1.633.057,2.812.057Zm.568,5.709c0,.483.156.6.824.6.568,0,.6-.056.611-1.676a12.876,12.876,0,0,0,1.293.37c-.043,1.548-.142,1.945-.511,2.272-.3.269-.611.326-1.647.326-1.534,0-1.932-.242-1.932-1.108v-3.806c0-.4-.014-.711-.028-.909l1.392.084c.185.015.284.072.284.157s-.085.156-.284.27Z" transform="translate(-247.413 -130.14)" fill="#5d5d5d"/>
      <path id="パス_9226" data-name="パス 9226" d="M317.94,173.6c.852.043,1.222.057,1.8.057.37,0,.5,0,1.051-.028,0-.667-.042-1.619-.114-2.244l1.591.156c.157.015.242.085.242.185s-.028.128-.242.27l-.042,1.548c.085-.014.17-.028.426-.057a11.53,11.53,0,0,0,1.946-.369l.241,1.377a16.125,16.125,0,0,1-2.641.37c-.014.454-.014.454-.043.938-.014.341-.028.71-.043,1.974a1.919,1.919,0,0,1,.156.8,4.179,4.179,0,0,1-.184,1.15,7.107,7.107,0,0,0-.313,1.86c0,.71.469.9,2.287.9a7.737,7.737,0,0,0,2.272-.242.96.96,0,0,0,.582-.994,7.561,7.561,0,0,0-.312-2,7.087,7.087,0,0,0,1.392-.3,8.291,8.291,0,0,1,.4,2.429,2.034,2.034,0,0,1-1.576,2.258,12.706,12.706,0,0,1-2.755.242c-2.045,0-2.7-.128-3.2-.611a1.966,1.966,0,0,1-.483-1.462,3.572,3.572,0,0,1,.156-1.009,1.224,1.224,0,0,1-.823.27c-1.392,0-2.258-1.023-2.258-2.641a2.238,2.238,0,0,1,2.145-2.528,1.718,1.718,0,0,1,1.164.383c0-.27.028-.852.028-1.036v-.285a16.441,16.441,0,0,1-1.789.071c-.227,0-.6,0-1.065-.014Zm.81,4.673c0,.965.355,1.477,1.037,1.477.611,0,.98-.4.98-1.108,0-.909-.468-1.605-1.093-1.605-.554,0-.923.5-.923,1.236m7.911-4.6a9.339,9.339,0,0,1,3.778,1.86l-.739,1.25a10.177,10.177,0,0,0-3.536-1.846Z" transform="translate(-260.209 -130.252)" fill="#5d5d5d"/>
      <path id="パス_9227" data-name="パス 9227" d="M277.1,99.021c-.588-.09-1.233-.18-1.792-.251V96.329a1.165,1.165,0,0,0-.373-.856,1.109,1.109,0,0,0-.848-.294,55.1,55.1,0,0,0-15.7,3.733,55.1,55.1,0,0,0-15.7-3.733,1.118,1.118,0,0,0-.848.294,1.167,1.167,0,0,0-.373.856V98.77c-.558.071-1.2.16-1.792.251a1.137,1.137,0,0,0-.96,1.138V120.4a1.154,1.154,0,0,0,.4.877,1.122,1.122,0,0,0,.9.259,59.265,59.265,0,0,1,17.9,0l.362.055.123-.112.123.112.362-.055a59.286,59.286,0,0,1,17.9,0,1.117,1.117,0,0,0,.9-.259,1.154,1.154,0,0,0,.4-.877V100.159a1.137,1.137,0,0,0-.96-1.138m-17.88,1.211a53.642,53.642,0,0,1,14.553-3.485v19.477a54.929,54.929,0,0,0-14.553,3.383ZM243,96.747a53.637,53.637,0,0,1,14.553,3.485v19.374A54.934,54.934,0,0,0,243,116.223Zm-2.752,23.207V100.486c.408-.061.83-.119,1.217-.169v16.26a1.133,1.133,0,0,0,1.039,1.144,51.634,51.634,0,0,1,9.512,1.692,60.9,60.9,0,0,0-11.768.541m36.288,0a60.924,60.924,0,0,0-11.77-.541,51.7,51.7,0,0,1,9.514-1.692,1.132,1.132,0,0,0,1.038-1.144v-16.26c.389.05.81.109,1.218.169Z" transform="translate(-223.273 -94.504)" fill="#5d5d5d"/>
      <path id="パス_9228" data-name="パス 9228" d="M402.93,176.677l.965.795a.3.3,0,0,1,.1.213c0,.113-.057.17-.412.3-.014.384-.028.7-.114,2.216a6.392,6.392,0,0,1-.525,2.684,1.688,1.688,0,0,1-1.236.71,14.224,14.224,0,0,1-1.562.071,5.647,5.647,0,0,0-.284-1.505,9.693,9.693,0,0,0,1.236.071c.54,0,.739-.142.852-.569a16.747,16.747,0,0,0,.3-3.493h-1.463c-.029.242-.057.426-.071.539l-1.363-.156a43.618,43.618,0,0,0,.5-4.587c.441.014.995.029,1.492.029h.98v-1.619h-1.605c-.341,0-.937.014-1.264.028v-1.307c.313.029.852.043,1.264.043h1.7c.639,0,1.008-.014,1.307-.029-.014.256-.014.256-.029,1.25v1.875c0,.525,0,.71.043,1.406h-1.42v-.412h-1.207c-.071.682-.128,1.264-.185,1.747h1.818ZM406,179.162v.411H404.62c.029-.568.043-1.391.043-2.5v-1.136c0-.852-.014-1.8-.043-2.258.383.014.724.028,1.207.028h3.224a14.952,14.952,0,0,0,1.534-3.181l1.406.512c.1.042.157.085.157.156,0,.114,0,.114-.327.2a23.8,23.8,0,0,1-1.32,2.315h.042c.5,0,.838-.014,1.207-.028-.029.468-.029.468-.043,2.258v1.008c0,1.136.014,1.96.043,2.5h-1.378v-.284h-1.548v.895h1.491c.654,0,1.648-.014,2.258-.042v1.363c-.653-.028-1.562-.042-2.258-.042h-1.491c0,1.023.015,1.874.043,2.371h-1.435c.029-.539.029-1.292.029-2.371h-1.491c-.7,0-1.6.014-2.258.042v-1.363c.6.029,1.534.042,2.258.042h1.491v-.895Zm-.739-8.451A8.851,8.851,0,0,1,406.807,173l-1.207.682a13.415,13.415,0,0,0-1.32-2.315Zm2.2,4.261H406v.867h1.463ZM406,177.9h1.463v-.881H406Zm1.591-7.556a9.389,9.389,0,0,1,1.562,2.387l-1.236.682A13.2,13.2,0,0,0,406.58,171Zm2.783,4.63h-1.548v.867h1.548Zm-1.548,2.926h1.548v-.881h-1.548Z" transform="translate(-298.623 -129.762)" fill="#5d5d5d"/>
      <path id="パス_9229" data-name="パス 9229" d="M437.827,171.808a.331.331,0,0,1,.2.27c0,.113-.042.156-.4.256-1.023,1.108-1.889,1.988-2.741,2.826-.341.327-.341.327-1.363,1.249-.17.156-.17.156-.6.569-.127.113-.184.2-.184.269s.085.2.3.37a38.774,38.774,0,0,1,3.068,2.911,23.12,23.12,0,0,1,2.045,2.315l-1.321,1.065a20.783,20.783,0,0,0-2.272-2.769,38.414,38.414,0,0,0-2.855-2.783c-.582-.511-.739-.753-.739-1.108s.157-.611.782-1.151c.241-.213.241-.213,2.414-2.3a17.45,17.45,0,0,0,2.386-2.812Z" transform="translate(-313.452 -130.063)" fill="#5d5d5d"/>
      <path id="パス_9230" data-name="パス 9230" d="M422.569,93.912H394.286a1.14,1.14,0,0,0-1.139,1.138v25.485a1.14,1.14,0,0,0,1.139,1.138h28.283a1.14,1.14,0,0,0,1.139-1.138V95.05a1.14,1.14,0,0,0-1.139-1.138m-8.878,14.969h1.25V120.14h-5.745V108.881h1.25a.364.364,0,0,0,.341-.383V95.446h2.563V108.5a.364.364,0,0,0,.341.383m-10.526,0a.364.364,0,0,0,.341-.383V95.446h2.563V108.5a.364.364,0,0,0,.341.383h1.25V120.14h-5.746V108.881Zm-8.483-13.435h4.107V108.5a.364.364,0,0,0,.341.383h1.25V120.14h-5.7Zm27.492,24.693h-5.7V108.881h1.25a.364.364,0,0,0,.341-.383V95.446h4.107Z" transform="translate(-295.713 -93.912)" fill="#5d5d5d"/>
      <path id="パス_9231" data-name="パス 9231" d="M350.054,115.813l-3.4-3.873a.531.531,0,0,0-.93.35v7.747a.531.531,0,0,0,.93.35l3.4-3.874a.531.531,0,0,0,0-.7" transform="translate(-273.47 -102.283)" fill="#2f2725"/>
    </g>
  </g>
</svg>
