<svg xmlns="http://www.w3.org/2000/svg" xmlns:xlink="http://www.w3.org/1999/xlink" width="435" height="129.8" viewBox="0 0 435 129.8">
  <defs>
    <clipPath id="clip-path">
      <rect id="長方形_921" data-name="長方形 921" width="232.391" height="14.697" fill="none"/>
    </clipPath>
  </defs>
  <g id="グループ_361" data-name="グループ 361" transform="translate(0.488 0)">
    <rect id="長方形_517" data-name="長方形 517" width="435" height="117" rx="10" transform="translate(-0.488 12.8)" fill="#fff"/>
    <path id="長方形_517_-_アウトライン" data-name="長方形 517 - アウトライン" d="M10,4a6.007,6.007,0,0,0-6,6v97a6.007,6.007,0,0,0,6,6H425a6.007,6.007,0,0,0,6-6V10a6.007,6.007,0,0,0-6-6H10m0-4H425a10,10,0,0,1,10,10v97a10,10,0,0,1-10,10H10A10,10,0,0,1,0,107V10A10,10,0,0,1,10,0Z" transform="translate(-0.488 12.8)" fill="rgba(84,195,241,0.5)"/>
    <path id="パス_9287" data-name="パス 9287" d="M318.909,300.22h-171.8a13.3,13.3,0,0,1,0-26.592H384.089a13.3,13.3,0,0,1,0,26.592" transform="translate(-48.502 -273.628)" fill="#54c3f1"/>
    <g id="グループ_1104" data-name="グループ 1104" transform="translate(38.194 50.143)">
      <path id="パス_9295" data-name="パス 9295" d="M414.951,463.076c0,.923.014,1.648.028,2.073h-1.42c.029-.5.043-1.15.043-2.073V461.94a15.056,15.056,0,0,1-5.539,2.855,7.494,7.494,0,0,0-.54-1.221,15.2,15.2,0,0,0,5.113-2.216h-2.06c-.781,0-2.059.029-2.826.057v-1.278c.739.042,2.017.056,2.826.056H413.6c-.014-.61-.029-.994-.043-1.278l1.435.114c.156,0,.242.057.242.128s-.071.17-.27.284c-.014.3-.014.412-.014.752h3.025c.895,0,2.1-.014,2.826-.056v1.278c-.753-.028-1.96-.057-2.826-.057h-2.13a12.89,12.89,0,0,0,5.17,2.073,3.536,3.536,0,0,0-.654,1.221,12.517,12.517,0,0,1-3.622-1.405,8.225,8.225,0,0,1-1.789-1.279Zm-3.451-5.439a15.863,15.863,0,0,1-1.563.909c-1.051.539-1.051.539-1.306.7-.1.17-.171.242-.242.242s-.157-.071-.213-.185l-.54-1.179a15.7,15.7,0,0,0,3.479-1.619Zm-2.571-4.758a14.466,14.466,0,0,1,2.287,1.734l-.909,1.065a18.613,18.613,0,0,0-2.159-1.832Zm4.175,6.32H411.77c.028-.326.042-.809.042-1.505v-2.869c0-.454-.028-.994-.042-1.249.312.014.611.014,1.023.014h.682a10.149,10.149,0,0,0,.44-1.605l1.278.3a.241.241,0,0,1,.185.2c0,.071,0,.071-.27.185-.213.469-.313.71-.412.923H415.8c.411,0,.71,0,1.023-.014-.029.255-.043.795-.043,1.249v2.727c0,.668.014,1.136.043,1.477H415.49v-.369H413.1Zm2.386-4.5H413.1v.9h2.386Zm0,1.96H413.1v.909h2.386Zm2.017-.312a12.294,12.294,0,0,1,3.295,1.789l-.71,1.079c-.2-.128-.355-.227-.455-.3a15.506,15.506,0,0,0-2.713-1.52Zm-.469-1.449a12.649,12.649,0,0,0,2.457-2.017l.98,1.009a.281.281,0,0,1,.086.2.116.116,0,0,1-.128.113,1.807,1.807,0,0,1-.213-.014,20.868,20.868,0,0,1-2.542,1.747Z" transform="translate(-192.273 -407.431)" fill="#5d5d5d"/>
      <path id="パス_9296" data-name="パス 9296" d="M439.28,455.694c-.3-.014-.753-.029-1.136-.029H435.7c-.383,0-.838.014-1.136.029v-1.349c.313.014.824.029,1.136.029h2.443c.312,0,.823-.014,1.136-.029Zm-2.94,9.132h-1.349c.028-.327.042-.81.042-1.505v-1.847c0-.44-.014-.995-.042-1.25.326.014.625.028,1.036.028h1.818c.426,0,.71-.014,1.037-.028-.029.255-.043.81-.043,1.25v1.761c0,.667.014,1.15.043,1.477h-1.349v-.454H436.34Zm1.477-11.106h-1.79l-.852.014v-1.32c.213.014.582.028.852.028h1.79c.27,0,.639-.014.852-.028v1.32Zm.852,3.891c-.213-.014-.582-.014-.852-.014h-1.79c-.27,0-.639,0-.852.014V456.29c.213.015.582.015.852.015h1.79c.27,0,.639,0,.852-.015Zm0,1.96c-.213-.014-.582-.014-.852-.014h-1.79c-.27,0-.639,0-.852.014v-1.32c.213.014.582.014.852.014h1.79c.27,0,.639,0,.852-.014Zm-1.136,1.8H436.34v1.747h1.193Zm6.433-7.6a14.625,14.625,0,0,0,.88-2.06l1.264.553a.2.2,0,0,1,.128.171c0,.1-.114.156-.383.17l-.213.4c-.185.341-.3.582-.412.767h.483c.539,0,1.264-.015,1.69-.029v1.335c-.426-.014-1.221-.028-1.69-.028h-.7v2.8h1.051c.539,0,1.278-.014,1.7-.028v1.334c-.44-.028-1.235-.042-1.7-.042h-5.1c-.469,0-1.264.014-1.69.042v-1.334c.426.014,1.15.028,1.69.028h.88v-2.8h-.611c-.469,0-1.278.014-1.7.028v-1.335c.426.014,1.151.029,1.7.029h.511a12.094,12.094,0,0,0-.867-1.478l.952-.582A6.43,6.43,0,0,1,443,453.479l-.539.3Zm-3.238,1.377a8.663,8.663,0,0,1,.909,2.116l-1.079.483a9.876,9.876,0,0,0-.767-2.144Zm1.136,9.3v.567H440.53c.028-.34.043-.809.043-1.505v-2.585c0-.454-.029-.994-.043-1.249.312.014.611.014,1.023.014h3.835c.411,0,.71,0,1.022-.014-.014.255-.043.795-.043,1.249v2.357c0,.668.014,1.15.043,1.477h-1.335v-.312Zm3.21-3.58h-3.21v.611h3.21Zm0,1.747h-3.21v.639h3.21Zm-1.292-7.57h-.7v2.8h.7Zm1.42,2.215a10.107,10.107,0,0,0,.966-2.073l1.193.568a.191.191,0,0,1,.127.17c0,.1-.114.157-.383.185l-.483.909c-.085.157-.227.37-.5.8Z" transform="translate(-204.957 -407.306)" fill="#5d5d5d"/>
      <path id="パス_9297" data-name="パス 9297" d="M469.208,452.149a.166.166,0,0,1,.142.156c0,.085-.057.142-.27.227a9.626,9.626,0,0,1-.639,1.278,16.685,16.685,0,0,0,3.2-.44l.341,1.278a33.916,33.916,0,0,1-4.232.469c-.3.511-.8,1.292-1.065,1.661a3.123,3.123,0,0,1,1.321-.27,1.8,1.8,0,0,1,1.9,1.605c.682-.27,1.875-.823,3.067-1.406l1.009,1.008a.307.307,0,0,1,.085.2c0,.085-.085.127-.2.127h-.185c-1.307.469-2.045.767-3.678,1.491v2.7h-1.392V460.1a7.187,7.187,0,0,0-1.42.909,1.889,1.889,0,0,0-.781,1.378c0,.767.653,1.037,2.485,1.037a20.143,20.143,0,0,0,4.573-.454,9.735,9.735,0,0,0-.085,1.122,2.524,2.524,0,0,0,.029.426,27.377,27.377,0,0,1-4.318.327,7.1,7.1,0,0,1-2.954-.384,2.062,2.062,0,0,1-1.207-2.017,2.666,2.666,0,0,1,.781-1.889,8.962,8.962,0,0,1,2.826-1.875c-.128-.795-.37-1.065-1.037-1.065-.994,0-2.272.894-3.323,2.343l-1.236-1.051a16.391,16.391,0,0,0,3.281-3.749c-.582.028-.738.028-1.036.028a10.293,10.293,0,0,1-1.279-.071l.057-1.335a11.851,11.851,0,0,0,1.917.114,9.386,9.386,0,0,0,.994-.043,7.741,7.741,0,0,0,.9-2Z" transform="translate(-218.269 -407.368)" fill="#5d5d5d"/>
      <path id="パス_9298" data-name="パス 9298" d="M492.79,455.857c-.3-.014-.753-.029-1.136-.029H489.2c-.383,0-.838.014-1.136.029v-1.35c.313.014.824.029,1.136.029h2.457c.312,0,.823-.015,1.136-.029Zm-2.954,9.132h-1.349c.028-.327.042-.81.042-1.506v-1.847c0-.44-.014-.994-.042-1.249.327.014.625.028,1.036.028h1.847c.411,0,.71-.014,1.023-.028-.029.255-.043.81-.043,1.249V463.4c0,.667.014,1.15.043,1.477h-1.335v-.455h-1.222Zm1.491-11.106h-1.8l-.852.014v-1.32c.213.014.582.028.852.028h1.8c.27,0,.639-.014.852-.028v1.32Zm.852,3.891c-.213-.014-.582-.014-.852-.014h-1.8c-.27,0-.639,0-.852.014v-1.321c.213.014.582.014.852.014h1.8c.27,0,.639,0,.852-.014Zm0,1.96c-.213-.014-.582-.014-.852-.014h-1.8c-.27,0-.639,0-.852.014v-1.321c.213.014.582.014.852.014h1.8c.27,0,.639,0,.852-.014Zm-1.121,1.8h-1.222v1.747h1.222Zm5.581-2.2c.2.014.326.085.326.171s-.071.142-.285.27c-.1,2.187-.284,2.926-.951,3.764a4.739,4.739,0,0,1-2.344,1.6,5.626,5.626,0,0,0-.753-1.264,3.724,3.724,0,0,0,2-1.321,3.919,3.919,0,0,0,.611-2.585,6.578,6.578,0,0,0-.042-.753Zm1.079-3.763h1.363c.412,0,1.008-.015,1.42-.029v1.35c-.412-.014-1.008-.029-1.42-.029H495.1c-.412,0-1.009.014-1.42.029v-1.35c.411.014,1.008.029,1.42.029h1.25v-.839h-1.605c-.469,0-1.264.014-1.7.043V453.4c.426.014,1.164.028,1.7.028h1.605v-.057c0-.639,0-.809-.029-1.306l1.406.085c.156.014.256.071.256.142s-.071.17-.27.285v.852h1.832c.554,0,1.279-.014,1.7-.028v1.377c-.426-.029-1.236-.043-1.7-.043h-1.832Zm.526,1.917c.937,0,2.059-.029,2.812-.057-.015.327-.015.6-.015,1.079v.7l.015.809h-1.378v-1.292h-5.141v1.292h-1.378c.014-.483.014-.483.014-.781v-.724c0-.582,0-.767-.014-1.079.937.042,1.633.057,2.812.057Zm.568,5.709c0,.483.156.6.824.6.568,0,.6-.056.611-1.675a12.715,12.715,0,0,0,1.293.369c-.043,1.548-.142,1.946-.511,2.273-.3.27-.611.326-1.648.326-1.534,0-1.932-.241-1.932-1.107v-3.806c0-.4-.014-.711-.028-.909l1.392.085c.185.014.284.071.284.156s-.085.157-.284.27Z" transform="translate(-230.049 -407.468)" fill="#5d5d5d"/>
      <path id="パス_9299" data-name="パス 9299" d="M515.827,454.521c.852.043,1.221.057,1.8.057.37,0,.5,0,1.051-.028,0-.668-.042-1.619-.114-2.245l1.591.157c.157.014.242.085.242.185s-.028.128-.242.27l-.042,1.548c.085-.014.17-.029.426-.057a11.522,11.522,0,0,0,1.946-.369l.242,1.378a16.152,16.152,0,0,1-2.642.369c-.014.454-.014.454-.043.938-.014.341-.028.71-.043,1.974a1.919,1.919,0,0,1,.156.8,4.166,4.166,0,0,1-.184,1.151,7.1,7.1,0,0,0-.313,1.86c0,.709.469.895,2.287.895a7.734,7.734,0,0,0,2.272-.242.959.959,0,0,0,.582-.994,7.563,7.563,0,0,0-.312-2,7.092,7.092,0,0,0,1.392-.3,8.3,8.3,0,0,1,.4,2.429,2.035,2.035,0,0,1-1.576,2.259,12.7,12.7,0,0,1-2.755.241c-2.045,0-2.7-.128-3.2-.611a1.966,1.966,0,0,1-.483-1.462,3.573,3.573,0,0,1,.156-1.009,1.223,1.223,0,0,1-.823.27c-1.392,0-2.258-1.023-2.258-2.641a2.238,2.238,0,0,1,2.144-2.528,1.717,1.717,0,0,1,1.164.384c0-.27.028-.853.028-1.037v-.284a16.591,16.591,0,0,1-1.789.071c-.227,0-.6,0-1.065-.014Zm.809,4.673c0,.965.355,1.477,1.037,1.477.611,0,.98-.4.98-1.108,0-.909-.469-1.6-1.094-1.6-.554,0-.923.5-.923,1.235m7.911-4.6a9.352,9.352,0,0,1,3.778,1.86l-.739,1.25a10.2,10.2,0,0,0-3.537-1.846Z" transform="translate(-242.846 -407.581)" fill="#5d5d5d"/>
      <path id="パス_9301" data-name="パス 9301" d="M316.64,457.594l.965.8a.3.3,0,0,1,.1.213c0,.114-.057.17-.412.3-.014.383-.029.7-.114,2.216a6.4,6.4,0,0,1-.525,2.684,1.688,1.688,0,0,1-1.236.71,14.484,14.484,0,0,1-1.562.071,5.671,5.671,0,0,0-.284-1.505,9.7,9.7,0,0,0,1.236.071c.54,0,.739-.142.852-.568a16.765,16.765,0,0,0,.3-3.494H314.5c-.029.242-.057.426-.071.54l-1.363-.156a43.674,43.674,0,0,0,.5-4.587c.44.014.995.028,1.491.028h.98v-1.619h-1.605c-.341,0-.938.014-1.264.028v-1.306c.313.028.852.042,1.264.042h1.7c.639,0,1.008-.014,1.307-.028-.014.255-.014.255-.029,1.25v1.874c0,.526,0,.71.043,1.406h-1.42v-.411h-1.207c-.071.682-.128,1.264-.185,1.747h1.818Zm3.068,2.485v.412H318.33c.028-.568.042-1.392.042-2.5v-1.136c0-.852-.014-1.8-.042-2.258.383.014.724.029,1.207.029h3.224a14.97,14.97,0,0,0,1.534-3.181l1.406.511c.1.043.157.085.157.157,0,.114,0,.114-.327.2a24.045,24.045,0,0,1-1.32,2.315h.042c.5,0,.838-.015,1.207-.029-.029.468-.029.468-.043,2.258v1.008c0,1.136.014,1.96.043,2.5h-1.378v-.283h-1.548v.895h1.491c.653,0,1.648-.014,2.258-.043v1.363c-.653-.028-1.562-.042-2.258-.042h-1.491c0,1.023.014,1.874.043,2.372h-1.435c.028-.54.028-1.293.028-2.372h-1.491c-.7,0-1.6.014-2.258.042v-1.363c.6.029,1.534.043,2.258.043h1.491v-.895Zm-.739-8.451a8.868,8.868,0,0,1,1.548,2.287l-1.207.682a13.438,13.438,0,0,0-1.32-2.315Zm2.2,4.261h-1.463v.867h1.463Zm-1.462,2.925h1.463v-.88h-1.463Zm1.59-7.555a9.374,9.374,0,0,1,1.563,2.386l-1.236.682a13.226,13.226,0,0,0-1.335-2.414Zm2.784,4.63h-1.548v.867h1.548Zm-1.548,2.925h1.548v-.88h-1.548Z" transform="translate(-153.724 -407.09)" fill="#5d5d5d"/>
      <path id="パス_9302" data-name="パス 9302" d="M351.537,452.726a.331.331,0,0,1,.2.27c0,.114-.042.157-.4.256-1.023,1.107-1.889,1.988-2.741,2.826-.341.327-.341.327-1.363,1.25-.17.156-.17.156-.6.568-.127.114-.184.2-.184.269s.086.2.3.37a38.97,38.97,0,0,1,3.068,2.911,23.123,23.123,0,0,1,2.045,2.315l-1.321,1.065a20.706,20.706,0,0,0-2.272-2.769,38.525,38.525,0,0,0-2.855-2.784c-.582-.511-.739-.753-.739-1.108s.157-.61.782-1.15c.241-.213.241-.213,2.414-2.3a17.45,17.45,0,0,0,2.385-2.812Z" transform="translate(-168.555 -407.392)" fill="#5d5d5d"/>
      <path id="パス_9304" data-name="パス 9304" d="M72.161,454.609c-.468,0-1.264.014-1.7.043V453.5H70v8.11c0,1.448.014,2.613.043,3.324H68.682c.028-.739.042-1.79.042-3.125-.327.128-.6.227-.909.341-1.051.384-1.051.384-1.633.639-.1.2-.156.27-.227.27a.228.228,0,0,1-.2-.156l-.525-1.292c.313-.071.6-.142.88-.227V453.5c-.255,0-.5,0-.71.014v-1.306c.411.014,1.008.028,1.42.028h2.471c.412,0,1.008-.014,1.406-.028v1.15c.426,0,1.008.014,1.463.014h1.563v-.2c0-.653,0-.824-.029-1.32l1.406.085c.156.014.255.071.255.157s-.071.156-.269.284v.994h1.832c.539,0,1.264-.014,1.69-.028v1.306c-.426-.028-1.221-.043-1.69-.043H75.087v1.079h2c.426,0,.71,0,1.023-.014-.014.255-.029.8-.029,1.25v1.463c0,.667.014,1.151.029,1.477H76.777v-.483H72.261v.625H70.926c.014-.327.029-.81.029-1.506v-1.576c0-.455-.015-.995-.029-1.25.313.014.6.014,1.023.014h1.775v-1.079Zm-4.786.525h1.349v-1.647H67.375Zm0,2.8h1.349v-1.6H67.375Zm0,1.193v1.889c.454-.142.909-.3,1.349-.483v-1.406Zm4.715,1.988a.164.164,0,0,1,.127.157c0,.085-.042.128-.227.184a9.84,9.84,0,0,1-.809,2.926,3.89,3.89,0,0,0-1.094-.867,7.387,7.387,0,0,0,.738-2.8Zm.88-4.246h-.71v1.32h.71Zm.767,5.979c0,.511.142.6.98.6s.852-.015.88-1.165a7.137,7.137,0,0,0,1.349.426c-.057,1.776-.341,2.031-2.372,2.031-1.775,0-2.187-.213-2.187-1.122v-2.187l-.014-.909,1.363.086c.185.014.27.071.27.156s-.071.157-.27.284Zm.724-3.437a7.818,7.818,0,0,1,1.605,1.605l-.966.853a8.3,8.3,0,0,0-1.505-1.648Zm.44-2.542h-.767v1.32H74.9Zm1.875,0h-.71v1.32h.71Zm.54,3.636a10.481,10.481,0,0,1,1.562,2.755l-1.264.639a11.649,11.649,0,0,0-1.307-2.713Z" transform="translate(-60.519 -407.369)" fill="#5d5d5d"/>
      <path id="パス_9305" data-name="パス 9305" d="M103.974,452.757a.331.331,0,0,1,.2.27c0,.114-.042.157-.4.256-1.023,1.108-1.889,1.988-2.741,2.826-.341.326-.341.326-1.363,1.25-.17.156-.17.156-.6.568-.127.114-.184.2-.184.269s.085.2.3.37a38.973,38.973,0,0,1,3.068,2.911,23.124,23.124,0,0,1,2.045,2.315l-1.321,1.065a20.707,20.707,0,0,0-2.272-2.769,38.533,38.533,0,0,0-2.855-2.784c-.582-.511-.739-.753-.739-1.108s.157-.61.782-1.15c.241-.213.241-.213,2.414-2.3a17.452,17.452,0,0,0,2.386-2.812Z" transform="translate(-75.474 -407.407)" fill="#5d5d5d"/>
      <path id="パス_9311" data-name="パス 9311" d="M194.637,461.716c0,.242.028,1.023.042,1.52v.171c0,1.065-.454,1.278-2.684,1.278a3.765,3.765,0,0,0-.256-1.335,8.378,8.378,0,0,0,.966.057c.568,0,.625-.057.625-.582v-3.253h-3.593c-.412,0-1.023.014-1.42.029v-1.279c.4.015,1.008.029,1.42.029h4.644c.426,0,1.022-.014,1.42-.029V459.6c-.327-.014-.781-.029-1.164-.029Zm0-6.633c0,.256.028,1.023.042,1.52v.185c0,1.051-.454,1.279-2.684,1.279a4.054,4.054,0,0,0-.227-1.264,7.926,7.926,0,0,0,.937.057c.568,0,.625-.072.625-.6v-2.841h-3.437c-.411,0-1.008.014-1.42.029v-1.292c.412.028,1.008.028,1.42.028h4.218c.412,0,1.023,0,1.42-.028v1.292c-.256-.014-.582-.014-.895-.029Zm-4.36,1.946h-1.094c.014-.313.014-.838.014-1.505v-.469c0-.5,0-.951-.014-1.25.313.014.6.014,1.009.014h1.335c.4,0,.7,0,.994-.014l-.014,1.25v.3l.014,1.264h-1.093v-.27h-1.151Zm0,6.5h-1.094c.014-.3.014-.824.014-1.505v-.781c0-.5,0-.951-.014-1.264.313.014.6.028,1.009.028h1.335c.4,0,.7-.014.994-.028l-.014,1.264v.355c0,.654,0,1.179.014,1.477h-1.093V462.8h-1.151Zm1.151-8.82h-1.151v.753h1.151Zm0,6.249h-1.151v.9h1.151Zm5.581-5.5a15.325,15.325,0,0,1-1.122,2.6,4.3,4.3,0,0,0-1.079-.782,15.235,15.235,0,0,0,1.7-5.681l1.278.313c.17.028.255.1.255.2s-.028.142-.312.256c-.128.7-.255,1.292-.383,1.832h3.138l.227-.242.895.909c.071.085.114.128.114.2,0,.1,0,.127-.284.227a19.158,19.158,0,0,1-1.306,2.854,3.856,3.856,0,0,0-1.136-.71,11.774,11.774,0,0,0,1.008-1.974Zm1.676.966c-.014.255-.043.511-.057.767a11.37,11.37,0,0,0,.739,3.11,7.919,7.919,0,0,0,2.357,3.337,3.209,3.209,0,0,0-1.008,1.051,7.219,7.219,0,0,1-2.187-3.437c-.1-.341-.2-.653-.27-.98a6.733,6.733,0,0,1-1.165,3.025,6.22,6.22,0,0,1-1.434,1.548,3.748,3.748,0,0,0-.81-1.136,5.831,5.831,0,0,0,1.917-2.513,9.857,9.857,0,0,0,.582-2.727c.028-.9.057-1.775.085-2.67l1.378.156q.213.022.213.17c0,.085-.057.157-.17.213Z" transform="translate(-106.733 -407.252)" fill="#5d5d5d"/>
      <path id="パス_9312" data-name="パス 9312" d="M218.728,457.005c.37-.128.37-.128,1.165-.426a13.644,13.644,0,0,1,4.3-1.108,3.105,3.105,0,0,1,3.309,3.508c0,2.883-2.045,4.913-6.05,6.021a6.013,6.013,0,0,0-.653-1.463c3.451-.866,5.141-2.371,5.141-4.572,0-1.293-.682-2.088-1.775-2.088a6.927,6.927,0,0,0-2.954.824,13.8,13.8,0,0,0-1.662.767Zm2.3-5a25.709,25.709,0,0,1,4.573.98l-.568,1.406a21.364,21.364,0,0,0-4.474-.952Z" transform="translate(-120.998 -407.44)" fill="#5d5d5d"/>
      <path id="パス_9314" data-name="パス 9314" d="M588.785,458.48a18.754,18.754,0,0,1-.966,1.69,4.463,4.463,0,0,0-.909-1.349,21.674,21.674,0,0,0,2.926-7.072l1.363.525c.128.043.2.114.2.2,0,.113-.042.142-.341.241a23.229,23.229,0,0,1-1.107,3.2l.256.014c.142.014.227.071.227.142s-.071.17-.27.284c-.014.71-.014,1.392-.014,2.429v3.38c0,1.278.014,2.286.043,2.912h-1.463c.028-.639.057-1.605.057-2.912Zm7.442-1.065h1.292c.682,0,1.648-.028,2.258-.042v1.392c-.611-.028-1.576-.043-2.258-.043h-1.292v1.691h1.292c.682,0,1.648-.028,2.258-.057v1.406c-.611-.028-1.576-.043-2.258-.043h-1.292v.412c0,1.307.014,2.272.043,2.911h-1.463c.043-.639.057-1.6.057-2.911v-6.362H593.84a15.212,15.212,0,0,1-2.329,3.82,5.683,5.683,0,0,0-1.036-.965,17.2,17.2,0,0,0,3.266-6.789l1.279.384c.213.071.3.142.3.242s-.042.127-.327.213c-.227.668-.426,1.264-.625,1.789h3.693c.682,0,1.647-.014,2.258-.042v1.392c-.611-.014-1.576-.042-2.258-.042h-1.832Z" transform="translate(-264.895 -407.32)" fill="#5d5d5d"/>
      <path id="パス_9315" data-name="パス 9315" d="M618.093,453.585c.994,0,.994,0,4.359-.255a9.637,9.637,0,0,0,1.932-.27l.937.966c.1.1.128.157.128.227,0,.128-.042.157-.426.284-.327.285-.583.512-.739.667-.78.7-.78.7-1.6,1.463-.028.028-.3.255-.724.611-.2.17-.213.185-.923.81a5.705,5.705,0,0,1,2.358-.511,4.727,4.727,0,0,1,3.082,1.108,3.076,3.076,0,0,1,.98,2.443c0,2.471-2.216,4.147-5.5,4.147-1.96,0-3.025-.753-3.025-2.117a2.006,2.006,0,0,1,2.23-1.96c1.463,0,2.344.753,2.344,2.017a3.544,3.544,0,0,1-.043.554,3.161,3.161,0,0,0,1.719-.966,2.617,2.617,0,0,0,.682-1.733c0-1.42-1.037-2.258-2.784-2.258a8.275,8.275,0,0,0-4.943,1.875l-.866-1.264a31.99,31.99,0,0,0,5.894-4.956c-2.954.383-2.954.383-4.858.71Zm4.075,9.885c0-.738-.369-1.136-1.051-1.136-.568,0-.966.327-.966.781,0,.582.54.9,1.562.9.114,0,.242-.014.383-.029a1.7,1.7,0,0,0,.071-.511" transform="translate(-279.135 -407.934)" fill="#5d5d5d"/>
      <g id="グループ_1105" data-name="グループ 1105" transform="translate(0 0)">
        <path id="パス_9300" data-name="パス 9300" d="M474.991,380.238c-.588-.09-1.233-.18-1.792-.251v-2.441a1.165,1.165,0,0,0-.373-.856,1.108,1.108,0,0,0-.848-.294,55.1,55.1,0,0,0-15.7,3.733,55.1,55.1,0,0,0-15.7-3.733,1.118,1.118,0,0,0-.848.294,1.167,1.167,0,0,0-.373.856v2.441c-.558.071-1.2.16-1.792.251a1.137,1.137,0,0,0-.96,1.138v20.246a1.153,1.153,0,0,0,.4.877,1.122,1.122,0,0,0,.9.259,59.264,59.264,0,0,1,17.9,0l.362.055.123-.112.123.112.362-.055a59.285,59.285,0,0,1,17.9,0,1.117,1.117,0,0,0,.9-.259,1.154,1.154,0,0,0,.4-.877V381.376a1.137,1.137,0,0,0-.961-1.138m-17.88,1.211a53.643,53.643,0,0,1,14.553-3.485V397.44a54.93,54.93,0,0,0-14.553,3.383Zm-16.23-3.485a53.639,53.639,0,0,1,14.553,3.485v19.374a54.936,54.936,0,0,0-14.553-3.383Zm-2.752,23.207V381.7c.408-.06.83-.119,1.217-.169v16.26a1.133,1.133,0,0,0,1.039,1.144,51.632,51.632,0,0,1,9.512,1.692,60.9,60.9,0,0,0-11.768.541m36.287,0a60.919,60.919,0,0,0-11.77-.541,51.7,51.7,0,0,1,9.514-1.692,1.132,1.132,0,0,0,1.038-1.144v-16.26c.389.05.81.109,1.218.169Z" transform="translate(-205.909 -371.973)" fill="#5d5d5d"/>
        <path id="パス_9303" data-name="パス 9303" d="M336.279,375.129H308a1.14,1.14,0,0,0-1.139,1.138v25.485A1.14,1.14,0,0,0,308,402.891h28.283a1.14,1.14,0,0,0,1.139-1.138V376.267a1.14,1.14,0,0,0-1.139-1.138M327.4,390.1h1.25v11.258H322.9V390.1h1.25a.364.364,0,0,0,.341-.383V376.663h2.563v13.052a.364.364,0,0,0,.341.383m-10.526,0a.364.364,0,0,0,.341-.383V376.663h2.563v13.052a.364.364,0,0,0,.341.383h1.25v11.258h-5.746V390.1Zm-8.483-13.435H312.5v13.052a.364.364,0,0,0,.341.383h1.25v11.258h-5.7Zm27.492,24.693h-5.7V390.1h1.25a.364.364,0,0,0,.341-.383V376.663h4.107Z" transform="translate(-150.815 -371.381)" fill="#5d5d5d"/>
        <path id="パス_9306" data-name="パス 9306" d="M100.311,388.626a.764.764,0,0,0-.823.707,16.629,16.629,0,0,1-1.13,5.336,6.922,6.922,0,0,1-3.438,3.691,4.3,4.3,0,0,1-4.541-.6,7.843,7.843,0,0,1-1.74-3.463c-.117-.364-.233-.726-.358-1.081a32.612,32.612,0,0,0-3.046-5.9c-.479-.791-.975-1.609-1.427-2.423-1.81-3.264-2.491-6.011-2.081-8.4a7.765,7.765,0,0,1,5.7-6.115,7.473,7.473,0,0,1,7.717,3.008.767.767,0,0,0,1.278-.849,9.053,9.053,0,0,0-9.348-3.652,9.335,9.335,0,0,0-6.856,7.348c-.471,2.744.265,5.819,2.252,9.4.466.839.97,1.671,1.456,2.474a31.035,31.035,0,0,1,2.912,5.621c.12.339.231.686.342,1.035a9.083,9.083,0,0,0,2.151,4.115,5.436,5.436,0,0,0,3.732,1.4,6.234,6.234,0,0,0,2.468-.512,8.441,8.441,0,0,0,4.235-4.483,18.021,18.021,0,0,0,1.255-5.836.767.767,0,0,0-.707-.823" transform="translate(-67.483 -368.349)" fill="#5d5d5d"/>
        <path id="パス_9307" data-name="パス 9307" d="M99.765,388.369a4.611,4.611,0,0,0,1.17-2.237c.191-1.484-.814-2.676-1.823-3.646a10.694,10.694,0,0,0-3.656-2.572,4.476,4.476,0,0,0-4.71.872,4.752,4.752,0,0,0-1.135,2.545,8.278,8.278,0,0,0,.032,2.876,2.661,2.661,0,0,0,1.178,1.968,2.971,2.971,0,0,0,1.617.3L95.4,388.4a.767.767,0,0,0,.749-.785.757.757,0,0,0-.785-.749l-2.963.071a1.846,1.846,0,0,1-.813-.091,1.349,1.349,0,0,1-.436-.921,6.753,6.753,0,0,1-.027-2.345,3.277,3.277,0,0,1,.739-1.742,2.982,2.982,0,0,1,3.073-.48,9.3,9.3,0,0,1,3.111,2.234c.734.705,1.469,1.535,1.365,2.344a3.262,3.262,0,0,1-.84,1.467l-1.332,1.644a1.966,1.966,0,0,0-.481.941,1.705,1.705,0,0,0,.354,1.266,5.013,5.013,0,0,0,1.009.985,5.317,5.317,0,0,1,.585.513,2.737,2.737,0,0,1,.254,3.035,3.093,3.093,0,0,1-2.919-1.47.767.767,0,1,0-1.324.777,4.622,4.622,0,0,0,3.943,2.243,4.272,4.272,0,0,0,.486-.027,1.316,1.316,0,0,0,1.134-.741,4.273,4.273,0,0,0-.448-4.859,6.506,6.506,0,0,0-.754-.671,3.779,3.779,0,0,1-.717-.676c-.062-.087-.083-.148-.089-.131a1.421,1.421,0,0,1,.159-.221Z" transform="translate(-71.904 -373.483)" fill="#5d5d5d"/>
        <path id="パス_9308" data-name="パス 9308" d="M67.682,387.921a.768.768,0,0,0-.03,1.085,11.961,11.961,0,0,1,0,15.693.767.767,0,0,0,1.115,1.054,13.491,13.491,0,0,0,0-17.8.768.768,0,0,0-1.085-.03" transform="translate(-61.557 -377.283)" fill="#5d5d5d"/>
        <path id="パス_9309" data-name="パス 9309" d="M63.35,391.643a.767.767,0,0,0-1.115,1.054,8.983,8.983,0,0,1,0,11.773.767.767,0,0,0,1.115,1.054,10.512,10.512,0,0,0,0-13.881" transform="translate(-59.016 -379.014)" fill="#5d5d5d"/>
        <path id="パス_9310" data-name="パス 9310" d="M57.682,395.628a.767.767,0,0,0-1.115,1.054,5.767,5.767,0,0,1,0,7.542.767.767,0,1,0,1.115,1.054,7.3,7.3,0,0,0,0-9.65" transform="translate(-56.357 -380.884)" fill="#5d5d5d"/>
        <path id="パス_9313" data-name="パス 9313" d="M209.105,388.776A15.219,15.219,0,0,0,205.3,386a10.275,10.275,0,0,0,.921-.952,1.033,1.033,0,0,0-.378-1.612c-1.181-.516-3.72-2.3-4.211-4.49l5.983-.241a1.034,1.034,0,0,0,1.008-1.111,10.319,10.319,0,0,0-11.328-9.474,10.762,10.762,0,0,0-9.269,9.779,10.239,10.239,0,0,0,2.933,7.707c.132.136.269.267.409.394a15.3,15.3,0,0,0-8.271,13.174,1.1,1.1,0,0,0,.316.8,1.126,1.126,0,0,0,.8.338h28.223a1.128,1.128,0,0,0,.8-.338,1.106,1.106,0,0,0,.316-.8,15.164,15.164,0,0,0-4.457-10.4m-19.54-10.806a9.157,9.157,0,0,1,7.887-8.321c.3-.03.6-.045.9-.045a8.785,8.785,0,0,1,8.7,7.59l-6,.242a1.037,1.037,0,0,0-1.008,1.11h0c.207,2.945,3.021,5.107,4.591,5.988a8.786,8.786,0,0,1-15.057-6.564m-4.911,20.813a13.759,13.759,0,0,1,8.076-11.737,10.356,10.356,0,0,0,5.614,1.664c.081,0,.163,0,.245,0a10.318,10.318,0,0,0,5.359-1.659,13.712,13.712,0,0,1,8.062,11.734Z" transform="translate(-104.287 -368.07)" fill="#5d5d5d"/>
        <path id="パス_9316" data-name="パス 9316" d="M629.391,380.309a1.1,1.1,0,0,0-.56-.633l-4.564-2.23a1.105,1.105,0,0,0-1.478.507L615.6,392.66a1.091,1.091,0,0,0-.094.668l.054,5.468a1.1,1.1,0,0,0,1.775.867l4.346-3.318a1.089,1.089,0,0,0,.469-.485l7.186-14.709a1.1,1.1,0,0,0,.053-.844m-12.314,16.507-.022-2.215,2.674,1.307-1.761,1.344Zm3.885-2.014-3.793-1.853,6.809-13.936,3.793,1.853Z" transform="translate(-278.302 -372.414)" fill="#5d5d5d"/>
        <path id="パス_9317" data-name="パス 9317" d="M595.283,396.9l-9.253-2.77a.314.314,0,0,0-.4.3V396.4l.006,0V403.7a3.765,3.765,0,0,0-2.07.334c-1.5.681-2.327,2.074-1.855,3.112s2.068,1.328,3.565.647a3.011,3.011,0,0,0,1.983-2.563V396.89l6.621,1.982v7.295a3.761,3.761,0,0,0-2.072.334c-1.5.681-2.327,2.074-1.855,3.112s2.068,1.328,3.565.647a3.209,3.209,0,0,0,1.971-2.267h.013v-.181c0-.031,0-.062,0-.092v-8.363l.01,0V397.2a.314.314,0,0,0-.224-.3" transform="translate(-262.392 -380.289)" fill="#5d5d5d"/>
        <path id="パス_9318" data-name="パス 9318" d="M151.2,397.03l-3.4-3.873a.531.531,0,0,0-.93.35v7.747a.531.531,0,0,0,.93.35l3.4-3.874a.531.531,0,0,0,0-.7" transform="translate(-93.052 -379.752)" fill="#54c3f1"/>
        <path id="パス_9319" data-name="パス 9319" d="M274.481,397.03l-3.4-3.873a.531.531,0,0,0-.93.35v7.747a.531.531,0,0,0,.93.35l3.4-3.874a.531.531,0,0,0,0-.7" transform="translate(-139.359 -379.752)" fill="#54c3f1"/>
        <path id="パス_9320" data-name="パス 9320" d="M398.9,397.03l-3.4-3.873a.531.531,0,0,0-.93.35v7.747a.531.531,0,0,0,.93.35l3.4-3.874a.531.531,0,0,0,0-.7" transform="translate(-191.959 -379.752)" fill="#54c3f1"/>
        <path id="パス_9321" data-name="パス 9321" d="M551.132,397.03l-3.4-3.873a.531.531,0,0,0-.93.35v7.747a.531.531,0,0,0,.93.35l3.4-3.874a.531.531,0,0,0,0-.7" transform="translate(-251.843 -379.752)" fill="#54c3f1"/>
      </g>
    </g>
    <g id="グループ_1249" data-name="グループ 1249" transform="translate(101.152 6.052)">
      <path id="パス_10896" data-name="パス 10896" d="M8.784.42l-3.133,6.1L2.481.42H0L4.513,8.831v5.763h2.2V8.831L11.228.42Z" transform="translate(0 -0.159)" fill="#fff"/>
      <path id="パス_10897" data-name="パス 10897" d="M24.943,2.989l2.014,6.377H22.948ZM23.88.359,19.049,14.571h2.257l1.063-3.32h5.166l1.044,3.32h2.275L26.006.359Z" transform="translate(-7.206 -0.136)" fill="#fff"/>
      <path id="パス_10898" data-name="パス 10898" d="M51.834.42,48.309,12.226,44.821.42H41.669V14.594h2.014V2.825L47.19,14.594h2.238L52.934,2.825V14.594h2.033V.42Z" transform="translate(-15.763 -0.159)" fill="#fff"/>
      <path id="パス_10899" data-name="パス 10899" d="M72.583,2.989,74.6,9.367H70.588ZM71.52.359,66.689,14.571h2.257l1.063-3.32h5.166l1.044,3.32H78.5L73.646.359Z" transform="translate(-25.228 -0.136)" fill="#fff"/>
      <path id="パス_10900" data-name="パス 10900" d="M97.638.42V6.275h-6.1V.42h-2.2V14.594h2.2V8.1h6.1v6.49h2.2V.42Z" transform="translate(-33.796 -0.159)" fill="#fff"/>
      <path id="パス_10901" data-name="パス 10901" d="M115.752,2.989l2.014,6.377h-4.009ZM114.689.359l-4.831,14.212h2.257l1.063-3.32h5.166l1.044,3.32h2.275L116.815.359Z" transform="translate(-41.558 -0.136)" fill="#fff"/>
      <path id="パス_10902" data-name="パス 10902" d="M152.393.42l-3.525,11.806L145.38.42h-3.151V14.594h2.014V2.825l3.506,11.769h2.238l3.506-11.769V14.594h2.033V.42Z" transform="translate(-53.804 -0.159)" fill="#fff"/>
      <g id="グループ_1248" data-name="グループ 1248" transform="translate(0 0)">
        <g id="グループ_1247" data-name="グループ 1247" clip-path="url(#clip-path)">
          <path id="パス_10903" data-name="パス 10903" d="M171.489.42V8.645a6.1,6.1,0,0,0,.336,2.8,2.874,2.874,0,0,0,2.8,1.511,2.826,2.826,0,0,0,2.91-1.791,7.144,7.144,0,0,0,.224-2.518V.42h2.2V8.682c0,2.126-.075,2.7-.466,3.544-.747,1.66-2.555,2.63-4.868,2.63s-4.122-.989-4.887-2.63c-.373-.839-.448-1.417-.448-3.544V.42Z" transform="translate(-64.04 -0.159)" fill="#fff"/>
          <path id="パス_10904" data-name="パス 10904" d="M198.236,4.2A2.314,2.314,0,0,0,195.718,1.9c-1.324,0-2.313.783-2.313,1.827a1.565,1.565,0,0,0,.783,1.324,18.656,18.656,0,0,0,2.425,1.138c2.331,1.007,2.686,1.194,3.227,1.791a3.517,3.517,0,0,1,.914,2.518c0,2.537-1.921,4.2-4.868,4.2a5.008,5.008,0,0,1-4.308-1.921,5.1,5.1,0,0,1-.839-2.928h2.126a2.832,2.832,0,0,0,3.077,2.947c1.511,0,2.574-.8,2.574-1.958a1.872,1.872,0,0,0-.933-1.585,11.807,11.807,0,0,0-2.331-1.138,10.321,10.321,0,0,1-2.91-1.6A3.315,3.315,0,0,1,191.2,3.953c0-2.312,1.884-3.953,4.57-3.953a4.6,4.6,0,0,1,3.842,1.753,4.222,4.222,0,0,1,.727,2.443Z" transform="translate(-72.154 0)" fill="#fff"/>
          <rect id="長方形_920" data-name="長方形 920" width="2.22" height="14.174" transform="translate(131.472 0.261)" fill="#fff"/>
          <path id="パス_10905" data-name="パス 10905" d="M228.6,4.55C228.263,2.8,227.274,1.9,225.67,1.9c-2.293,0-3.73,2.108-3.73,5.465,0,3.338,1.436,5.428,3.767,5.428,1.791,0,2.835-1.157,3.04-3.413h2c-.205,3.45-1.94,5.315-4.961,5.315-3.749,0-6.154-2.854-6.154-7.311a7.791,7.791,0,0,1,2.163-5.912A5.755,5.755,0,0,1,225.689,0a4.705,4.705,0,0,1,3.973,1.865,4.983,4.983,0,0,1,.877,2.685Z" transform="translate(-83.083 0)" fill="#fff"/>
          <path id="パス_10906" data-name="パス 10906" d="M257.635,4.2A2.314,2.314,0,0,0,255.117,1.9c-1.324,0-2.313.783-2.313,1.827a1.565,1.565,0,0,0,.783,1.324,18.661,18.661,0,0,0,2.425,1.138c2.331,1.007,2.686,1.194,3.227,1.791a3.517,3.517,0,0,1,.914,2.518c0,2.537-1.921,4.2-4.868,4.2a5.008,5.008,0,0,1-4.308-1.921,5.1,5.1,0,0,1-.839-2.928h2.126a2.832,2.832,0,0,0,3.077,2.947c1.511,0,2.574-.8,2.574-1.958a1.872,1.872,0,0,0-.933-1.585,11.808,11.808,0,0,0-2.331-1.138,10.321,10.321,0,0,1-2.91-1.6A3.315,3.315,0,0,1,250.6,3.953c0-2.312,1.884-3.953,4.57-3.953a4.6,4.6,0,0,1,3.842,1.753,4.223,4.223,0,0,1,.727,2.443Z" transform="translate(-94.625 0)" fill="#fff"/>
          <path id="パス_10907" data-name="パス 10907" d="M278.518,4.55C278.182,2.8,277.193,1.9,275.589,1.9c-2.294,0-3.73,2.108-3.73,5.465,0,3.338,1.436,5.428,3.767,5.428,1.791,0,2.835-1.157,3.04-3.413h2c-.205,3.45-1.94,5.315-4.961,5.315-3.749,0-6.154-2.854-6.154-7.311a7.791,7.791,0,0,1,2.163-5.912A5.755,5.755,0,0,1,275.608,0a4.705,4.705,0,0,1,3.973,1.865,4.982,4.982,0,0,1,.877,2.685Z" transform="translate(-101.967 0)" fill="#fff"/>
          <path id="パス_10908" data-name="パス 10908" d="M300.045,6.276V.42h2.2V14.594h-2.2V8.1h-6.1v6.491h-2.2V.42h2.2V6.276Z" transform="translate(-110.365 -0.159)" fill="#fff"/>
          <path id="パス_10909" data-name="パス 10909" d="M319.324,0c3.656,0,6.118,2.946,6.118,7.348S322.98,14.7,319.324,14.7c-3.637,0-6.1-2.966-6.1-7.349,0-4.4,2.443-7.348,6.1-7.348m.019,12.794c2.331,0,3.786-2.108,3.786-5.446,0-3.357-1.455-5.446-3.786-5.446-2.35,0-3.8,2.108-3.8,5.446,0,3.357,1.455,5.446,3.8,5.446" transform="translate(-118.491 0)" fill="#fff"/>
          <path id="パス_10910" data-name="パス 10910" d="M342.214,0c3.656,0,6.118,2.946,6.118,7.348S345.87,14.7,342.214,14.7c-3.637,0-6.1-2.966-6.1-7.349,0-4.4,2.443-7.348,6.1-7.348m.019,12.794c2.331,0,3.786-2.108,3.786-5.446,0-3.357-1.455-5.446-3.786-5.446-2.35,0-3.8,2.108-3.8,5.446,0,3.357,1.455,5.446,3.8,5.446" transform="translate(-127.15 0)" fill="#fff"/>
          <path id="パス_10911" data-name="パス 10911" d="M362.612.42V12.71h6.1v1.884h-8.356V.42Z" transform="translate(-136.319 -0.159)" fill="#fff"/>
        </g>
      </g>
    </g>
  </g>
</svg>
